<svg xmlns="http://www.w3.org/2000/svg" width="108" height="409" viewBox="0 0 108 409" version="1.1">
  <path d="M 3 188.243 L 3 361.485 28.500 336 L 54 310.514 80.500 337 L 107 363.486 107 189.243 L 107 15 55 15 L 3 15 3 188.243 M 36.683 41.650 C 36.307 42.026, 36 46.983, 36 52.667 C 36 61.185, 36.263 63, 37.500 63 C 38.433 63, 39 62.056, 39 60.500 C 39 58.045, 39.141 58, 46.883 58 C 55.416 58, 55.949 58.401, 55.986 64.849 C 56.039 73.849, 65.173 79.548, 73.033 75.483 C 78.189 72.817, 79.358 69.031, 79.433 54.765 C 79.474 46.943, 79.114 42.002, 78.500 41.956 C 77.950 41.915, 77.255 42.921, 76.955 44.191 C 76.410 46.500, 76.408 46.500, 57.969 46.500 C 40.314 46.500, 39.512 46.415, 39.167 44.500 C 38.722 42.034, 37.594 40.740, 36.683 41.650 M 59 60.443 C 59 63.710, 62.502 66, 67.500 66 C 72.498 66, 76 63.710, 76 60.443 C 76 58.044, 75.847 58, 67.500 58 C 59.153 58, 59 58.044, 59 60.443 M 43.017 84.851 C 37.952 87.568, 35.667 91.153, 35.667 96.383 C 35.667 104.915, 41.574 109.993, 51.500 109.993 C 58.185 109.993, 62.708 107.902, 65.612 103.469 C 67.811 100.113, 67.832 92.918, 65.652 89.592 C 61.683 83.534, 50.025 81.093, 43.017 84.851 M 40.163 93.878 C 39.427 94.345, 38.977 95.800, 39.163 97.113 C 39.466 99.259, 40.191 99.589, 46.331 100.377 C 50.247 100.880, 55.368 100.880, 58.331 100.377 C 62.713 99.634, 63.551 99.137, 63.837 97.113 C 64.023 95.800, 63.573 94.345, 62.837 93.878 C 61.096 92.775, 41.904 92.775, 40.163 93.878 M 23.723 113.611 C 23.325 114.008, 23 117.858, 23 122.167 C 23 128.463, 23.294 130, 24.500 130 C 25.333 130, 26 129.111, 26 128 C 26 126.224, 26.667 126, 31.949 126 L 37.898 126 36.540 129.250 C 34.665 133.738, 35.635 137.472, 39.574 140.931 C 48.577 148.835, 67.400 143.863, 67.400 133.581 C 67.400 131.666, 66.616 129.233, 65.657 128.173 C 64.121 126.477, 64.098 126.177, 65.457 125.655 C 66.588 125.221, 67 123.600, 67 119.590 C 67 114.207, 65.562 111.372, 64.386 114.437 C 63.489 116.773, 27.291 116.780, 25.583 114.444 C 24.957 113.588, 24.120 113.213, 23.723 113.611 M 40.200 127.200 C 39.540 127.860, 39 129.446, 39 130.725 C 39 133.771, 42.307 135, 50.500 135 C 58.857 135, 62 133.786, 62 130.560 C 62 129.122, 61.183 127.633, 60.066 127.035 C 57.336 125.574, 41.696 125.704, 40.200 127.200 M 63.638 150.500 C 63.176 151.705, 60.939 152, 52.254 152 C 40.463 152, 37.725 152.963, 35.905 157.749 C 35.168 159.689, 35.385 161.201, 36.819 164.098 C 38.331 167.155, 38.435 168.003, 37.350 168.419 C 36.444 168.767, 36 170.738, 36 174.410 C 36 179.973, 37.201 182.250, 38.711 179.552 C 39.373 178.369, 42.331 178.003, 53.023 177.781 L 66.500 177.500 66.810 172.627 C 66.980 169.947, 66.836 167.022, 66.488 166.127 C 65.918 164.657, 65.731 164.672, 64.542 166.286 C 63.401 167.835, 61.865 168.034, 52.970 167.786 C 42.222 167.486, 39.850 166.439, 41.309 162.636 C 41.844 161.242, 43.789 161, 54.469 161 L 67 161 67 155 C 67 150.538, 66.643 149, 65.607 149 C 64.841 149, 63.955 149.675, 63.638 150.500 M 36 191.441 C 36 199.518, 36.734 200.960, 39.312 197.949 C 40.860 196.141, 42.389 196, 60.490 196 L 80 196 80 190 C 80 185.538, 79.643 184, 78.607 184 C 77.841 184, 76.955 184.675, 76.638 185.500 C 76.156 186.757, 73.133 187, 58 187 C 42.867 187, 39.844 186.757, 39.362 185.500 C 39.045 184.675, 38.159 184, 37.393 184 C 36.327 184, 36 185.747, 36 191.441 M 39.315 203.016 C 34.614 204.891, 34.188 209.555, 38.199 215.250 C 39.265 216.762, 39.666 218, 39.091 218 C 38.516 218, 37.291 219.153, 36.367 220.562 C 34.807 222.944, 34.804 223.366, 36.328 226.562 C 37.981 230.028, 41 231.280, 41 228.500 C 41 227.264, 42.809 227, 51.277 227 C 63.117 227, 65.386 226.016, 66.932 220.213 C 68.613 213.909, 65.897 206.185, 61.257 204.071 C 57.711 202.456, 56.205 202.757, 54.452 205.433 C 52.250 208.794, 53.970 212, 57.976 212 C 59.574 212, 61.165 211.543, 61.510 210.984 C 62.572 209.266, 64 210.964, 64 213.942 C 64 216.026, 63.410 216.925, 61.750 217.370 C 56.616 218.746, 55.411 218.149, 53.020 213.042 C 49.249 204.992, 43.998 201.150, 39.315 203.016 M 41 213.800 C 41 216.716, 43.106 218, 47.887 218 L 52.374 218 49.500 215 C 46.153 211.507, 41 210.779, 41 213.800 M 36 241.441 C 36 249.130, 37.098 251.553, 38.985 248.028 C 41.103 244.070, 60 245.821, 60 249.975 C 60 250.954, 59.325 252.315, 58.500 253 C 56.598 254.579, 56.612 255.469, 58.571 257.429 C 62.016 260.873, 68.706 258.024, 67.456 253.645 C 67.119 252.465, 65.553 250.290, 63.975 248.811 L 61.106 246.123 63.803 245.811 C 66.342 245.518, 66.518 245.164, 66.800 239.750 C 67.034 235.268, 66.782 234, 65.657 234 C 64.863 234, 63.955 234.675, 63.638 235.500 C 63.173 236.714, 60.856 237, 51.500 237 C 42.144 237, 39.827 236.714, 39.362 235.500 C 39.045 234.675, 38.159 234, 37.393 234 C 36.327 234, 36 235.747, 36 241.441" stroke="none" fill="#1d0767" fill-rule="evenodd"></path>
</svg>