<svg xmlns="http://www.w3.org/2000/svg"  width="100"
              height="150"
              viewBox="0 0 100 150" version="1.1">
  <path d="M 36.313 43.199 C 25.194 50.278 18.752 58.329 14.337 70.664 C 11.727 77.958 10.713 84.116 10.656 93.021 C 10.604 101.185 10.626 101.322 12.639 105.164 C 16.628 112.775 23.746 116.996 32.593 116.996 C 39.045 116.996 43.638 115.229 48.012 111.063 C 53.269 106.057 54.583 103.095 54.583 96.256 C 54.583 91.453 54.352 90.197 52.952 87.416 C 50.743 83.029 46.814 79.416 41.91 77.264 C 38.474 75.756 37.071 75.475 32.984 75.475 C 30.318 75.475 27.501 75.663 26.727 75.894 C 25.439 76.277 25.355 76.17 25.744 74.646 C 27.769 66.715 29.811 61.693 34.88 52.189 C 38.039 46.265 40.486 41.289 40.317 41.131 C 40.15 40.973 38.348 41.904 36.313 43.199 M 84.402 44.05 C 69.596 53.902 61.866 68.143 59.896 89.198 C 59.535 93.047 59.54 96.696 59.908 98.816 C 61.225 106.404 65.708 112.058 72.94 115.251 C 76.224 116.7 77.626 116.974 81.736 116.966 C 89.182 116.951 94.958 114.469 99.253 109.437 C 102.108 106.091 103.12 103.969 103.924 99.641 C 105.245 92.522 102.691 85.556 96.998 80.754 C 92.85 77.257 87.995 75.523 82.228 75.481 C 79.809 75.462 77.157 75.65 76.334 75.898 C 74.891 76.332 74.853 76.267 75.261 74.073 C 76.285 68.584 79.381 61.059 84.536 51.529 C 87.586 45.891 90.082 41.184 90.082 41.069 C 90.082 40.465 88.695 41.193 84.402 44.05" stroke="none" fill-rule="evenodd" style="fill: rgb(255, 255, 255);"></path>
</svg>